<?xml version="1.0" encoding="UTF-8" standalone="no"?>
<!-- Created with Inkscape (http://www.inkscape.org/) -->

<svg
   version="1.1"
   id="svg1"
   width="2666.6667"
   height="2666.6667"
   viewBox="0 0 2666.6667 2666.6667"
   sodipodi:docname="030620_28.eps"
   xmlns:inkscape="http://www.inkscape.org/namespaces/inkscape"
   xmlns:sodipodi="http://sodipodi.sourceforge.net/DTD/sodipodi-0.dtd"
   xmlns="http://www.w3.org/2000/svg"
   xmlns:svg="http://www.w3.org/2000/svg">
  <defs
     id="defs1" />
  <sodipodi:namedview
     id="namedview1"
     pagecolor="#ffffff"
     bordercolor="#000000"
     borderopacity="0.25"
     inkscape:showpageshadow="2"
     inkscape:pageopacity="0.0"
     inkscape:pagecheckerboard="0"
     inkscape:deskcolor="#d1d1d1">
    <inkscape:page
       x="0"
       y="0"
       inkscape:label="1"
       id="page1"
       width="2666.6667"
       height="2666.6667"
       margin="0"
       bleed="0" />
  </sodipodi:namedview>
  <g
     id="g1"
     inkscape:groupmode="layer"
     inkscape:label="1">
    <g
       id="group-R5">
      <path
         id="path2"
         d="m 17239.6,8986.9 c -110,3.2 -220.9,2.5 -332.1,-3.1 -111.3,-5.6 -223,-15.5 -334.8,-29.9 -14,-1.6 -28,-3.8 -41.9,-5.7 -14,-2 -28,-3.9 -42,-5.9 -14,-2.2 -27.9,-4.4 -41.9,-6.6 -14,-2.3 -28,-4.4 -41.9,-6.9 -27.9,-4.9 -55.9,-9.6 -83.8,-15.2 -14,-2.7 -27.9,-5.4 -41.9,-8.1 -13.9,-2.9 -27.9,-5.8 -41.8,-8.7 l -21,-4.4 c -6.9,-1.4 -13.9,-3.1 -20.8,-4.6 -14,-3.2 -27.9,-6.3 -41.8,-9.5 -14,-3.1 -27.9,-6.6 -41.8,-9.9 -13.9,-3.4 -27.8,-6.7 -41.7,-10.2 -13.9,-3.6 -27.8,-7.2 -41.6,-10.8 l -20.9,-5.4 -20.8,-5.8 c -13.8,-3.8 -27.7,-7.6 -41.6,-11.4 -13.8,-4 -27.6,-8.1 -41.4,-12.1 -27.8,-7.9 -55.3,-16.6 -82.9,-25 -13.8,-4.2 -27.5,-8.8 -41.3,-13.3 -13.7,-4.5 -27.5,-8.8 -41.3,-13.4 -13.7,-4.7 -27.4,-9.4 -41.1,-14.1 l -20.6,-7 -20.5,-7.3 c -13.7,-4.9 -27.4,-9.8 -41.1,-14.7 -13.6,-5 -27.2,-10.1 -40.9,-15.2 -27.3,-10 -54.4,-20.7 -81.6,-31.3 -13.7,-5.2 -27.1,-10.8 -40.7,-16.2 -13.5,-5.6 -27.1,-10.9 -40.6,-16.6 -13.5,-5.6 -27,-11.3 -40.5,-17 l -20.3,-8.5 -20.1,-8.8 c -13.5,-5.9 -26.9,-11.7 -40.4,-17.6 -13.4,-6 -26.8,-12.1 -40.2,-18.1 -107.2,-48.4 -213.1,-100.8 -318.1,-156.3 -105,-55.3 -208.7,-114.4 -311.4,-175.9 -12.9,-7.7 -25.6,-15.5 -38.4,-23.3 -12.8,-7.9 -25.6,-15.7 -38.4,-23.5 -12.7,-7.9 -25.4,-15.9 -38.2,-23.9 l -19.1,-11.9 -19,-12.1 c -12.7,-8.1 -25.4,-16.2 -38,-24.3 -12.7,-8.2 -25.3,-16.4 -37.9,-24.6 -25.3,-16.3 -50.4,-33.1 -75.6,-49.8 -100.4,-67 -199.7,-136.7 -298.1,-208.4 -98.3,-71.8 -195.7,-145.7 -292.2,-221.4 -96.5,-75.7 -192.2,-153.3 -287.2,-232.3 -94.9,-79.2 -189.2,-159.7 -283,-241.6 -93.7,-81.9 -187,-165 -279.8,-249.1 -371.6,-336.5 -737.4,-688.9 -1110.9,-1041.3 -186.7,-176.1 -375.5,-352.3 -568.3,-525.7 -192.7,-173.5 -389.5,-344.4 -592.6,-509.2 -25.4,-20.7 -51,-41.1 -76.5,-61.6 -25.7,-20.3 -51.2,-40.7 -77.1,-60.8 -51.6,-40.4 -103.7,-80.2 -156.2,-119.6 -13.1,-9.8 -26.3,-19.6 -39.4,-29.5 -13.3,-9.7 -26.6,-19.5 -39.8,-29.3 -13.3,-9.8 -26.6,-19.6 -39.9,-29.4 -13.4,-9.7 -26.7,-19.5 -40.1,-29.2 -26.6,-19.5 -53.5,-38.8 -80.3,-58.2 -26.8,-19.4 -53.8,-38.6 -80.73,-57.8 -215.91,-153.7 -436.3,-303.3 -661.63,-447.5 -225.31,-144.2 -455.47,-283.1 -690.72,-415.1 -235.27,-132.1 -475.56,-257.4 -721.18,-374 -213.07,-101.3 -428.61,-195 -646.22,-280.7 -217.63,-85.6 -437.34,-163.2 -658.91,-231.1 -221.56,-67.9 -444.84,-126.4 -669.21,-174.7 -224.34,-48.4 -449.88,-85.8 -675.54,-112.3 -112.83,-13.2 -225.7,-23.6 -338.48,-31.2 -28.21,-1.7 -56.39,-3.4 -84.57,-5.1 -28.19,-1.3 -56.36,-2.6 -84.52,-3.9 -56.27,-2.3 -112.42,-3.9 -168.48,-4.5 -224.18,-2.3 -446.97,9.9 -664.62,43.8 -217.49,33.8 -429.95,89.7 -628.84,174.2 -6.21,2.6 -12.49,5.1 -18.64,7.9 l -18.46,8.2 c -12.28,5.6 -24.71,10.9 -36.79,16.8 -12.16,5.8 -24.3,11.6 -36.45,17.4 l -35.97,18.2 c -12.07,6 -23.77,12.6 -35.61,18.9 l -17.73,9.6 c -5.97,3.1 -11.6,6.6 -17.42,9.8 l -34.65,20 -33.96,21.1 c -44.95,28.5 -88.94,58.5 -130.79,91.2 l -15.81,12.1 -15.43,12.6 -15.42,12.5 c -5.14,4.2 -10.33,8.3 -15.27,12.8 l -30.01,26 c -5.07,4.3 -9.8,8.9 -14.7,13.4 l -14.56,13.5 c -38.58,36.2 -75.83,73.8 -110.52,113.7 -4.37,4.9 -8.87,9.7 -13.13,14.8 l -12.7,15.2 -12.72,15.1 -6.34,7.6 -6.1,7.8 -24.45,31.1 -23.49,31.8 c -7.97,10.5 -15.25,21.5 -22.77,32.3 -7.48,10.8 -15.08,21.6 -22.07,32.7 -7.1,11.1 -14.37,22.1 -21.35,33.2 -6.8,11.3 -13.59,22.6 -20.39,33.8 -26.54,45.4 -51.3,91.8 -73.71,139.3 -89.58,190 -143.04,395.8 -160.38,603.3 -17.41,207.6 1.38,417.2 54.29,616.4 52.8,199.3 139.94,388.2 255.86,555.8 115.61,168 260.57,314.2 423.82,432.2 l 7.61,5.6 7.79,5.4 15.59,10.6 c 10.41,7.1 20.71,14.4 31.21,21.3 10.63,6.7 21.25,13.5 31.87,20.2 l 15.93,10.1 c 5.27,3.5 10.81,6.4 16.19,9.7 21.72,12.6 43.21,25.7 65.49,37.3 11.05,6 22.09,11.9 33.14,17.9 11.23,5.6 22.47,11.1 33.69,16.7 22.29,11.5 45.31,21.5 68.06,31.9 11.33,5.4 22.95,10 34.51,14.8 11.56,4.8 23.11,9.6 34.66,14.4 11.65,4.6 23.39,8.9 35.07,13.3 l 17.55,6.6 8.77,3.3 8.87,3 c 11.82,4 23.65,8 35.47,12 5.91,2 11.79,4.1 17.74,6 l 17.91,5.4 c 95.34,29.4 192.61,51.5 290.67,66.4 98.14,14.5 197.01,21.7 295.55,21.7 24.65,0.5 49.25,-0.7 73.84,-1.3 12.3,-0.1 24.57,-1 36.83,-1.7 12.27,-0.8 24.54,-1.5 36.79,-2.2 12.25,-0.9 24.46,-2.2 36.67,-3.3 l 18.32,-1.7 c 6.11,-0.6 12.23,-1 18.3,-1.9 12.16,-1.5 24.32,-3 36.47,-4.6 l 18.23,-2.2 c 6.07,-0.8 12.09,-1.9 18.14,-2.8 96.8,-14.6 192.18,-36.3 285.08,-65 -202.1,70 -419.12,106.5 -639.22,106.5 -13.76,0 -27.52,-0.1 -41.29,-0.2 -13.78,-0.3 -27.55,-1 -41.35,-1.5 -27.62,-0.6 -55.17,-3.1 -82.81,-4.9 -3.45,-0.3 -6.92,-0.5 -10.37,-0.8 l -10.33,-1.1 -20.69,-2.1 -20.71,-2.1 -10.37,-1.1 -10.33,-1.4 c -27.52,-3.8 -55.19,-7.1 -82.62,-12.1 l -20.64,-3.5 -10.32,-1.7 -5.17,-0.9 -5.12,-1.1 c -13.7,-2.7 -27.4,-5.5 -41.11,-8.3 -6.84,-1.4 -13.74,-2.7 -20.55,-4.3 l -20.44,-4.8 c -13.65,-3.2 -27.29,-6.5 -40.94,-9.8 -13.55,-3.6 -27.11,-7.3 -40.68,-11 l -20.36,-5.5 -20.18,-6.3 c -13.47,-4.1 -26.94,-8.2 -40.42,-12.4 -13.35,-4.6 -26.7,-9.2 -40.06,-13.7 l -20.06,-7 c -6.67,-2.3 -13.22,-5 -19.85,-7.5 -13.23,-5 -26.46,-10.1 -39.69,-15.1 -13.17,-5.3 -26.16,-11 -39.28,-16.5 l -19.64,-8.3 -4.91,-2 -4.83,-2.3 -9.68,-4.4 c -12.91,-6 -25.83,-12 -38.76,-18 -6.51,-2.9 -12.79,-6.3 -19.18,-9.4 l -19.09,-9.7 c -25.69,-12.5 -50.48,-26.8 -75.63,-40.5 -6.32,-3.4 -12.44,-7.1 -18.59,-10.7 l -18.47,-11.1 -18.47,-11 c -3.07,-1.9 -6.2,-3.7 -9.21,-5.6 l -9.06,-5.8 c -12.06,-7.9 -24.14,-15.7 -36.22,-23.5 -3,-1.9 -6.06,-3.9 -9.04,-5.9 l -8.86,-6.2 -17.7,-12.3 -17.74,-12.4 -8.86,-6.2 -8.64,-6.6 c -11.53,-8.7 -23.06,-17.4 -34.6,-26.1 l -8.66,-6.5 -8.43,-6.9 -16.84,-13.7 -16.86,-13.7 -8.42,-6.9 c -2.81,-2.3 -5.48,-4.7 -8.23,-7.1 -10.92,-9.5 -21.86,-19.1 -32.8,-28.6 -10.85,-9.7 -21.35,-19.7 -32.06,-29.6 -5.29,-5 -10.71,-9.8 -15.93,-14.9 l -15.54,-15.4 -15.54,-15.4 -7.78,-7.7 -7.53,-7.9 c -10.06,-10.6 -20.13,-21.1 -30.2,-31.7 -9.76,-10.9 -19.52,-21.8 -29.29,-32.7 -9.9,-10.8 -19.13,-22.2 -28.6,-33.4 l -14.14,-16.8 c -4.77,-5.6 -9.16,-11.5 -13.75,-17.2 -36.88,-45.8 -71.15,-93.8 -103.4,-143.3 -32.23,-49.5 -62.42,-100.6 -89.64,-153.5 -27.37,-52.7 -52.39,-106.9 -74.91,-162.3 -22.21,-55.5 -41.88,-112.2 -58.94,-169.8 l -6.28,-21.7 c -2.1,-7.2 -4.21,-14.4 -6.02,-21.7 -3.77,-14.6 -7.54,-29.2 -11.31,-43.8 -3.36,-14.6 -6.72,-29.4 -10.08,-44.1 -1.76,-7.3 -3.16,-14.7 -4.65,-22.1 l -4.41,-22.2 c -11.41,-59.4 -20.09,-119.4 -25.97,-179.9 -5.8,-60.5 -8.42,-121.5 -8.39,-182.6 0.14,-61.1 2.94,-122.4 9.06,-183.5 6.16,-61.2 15.24,-122.2 27.3,-182.8 12.11,-60.6 26.94,-120.8 45.33,-180.2 18.28,-59.3 39.55,-118 63.79,-175.6 l 9.23,-21.5 4.63,-10.8 c 1.55,-3.6 3.26,-7.1 4.88,-10.7 6.62,-14.1 13.11,-28.4 19.87,-42.5 7.02,-14 14.04,-28 21.07,-42 7.22,-14 14.83,-27.7 22.25,-41.5 30.4,-55 63.72,-108.6 99.86,-160.4 l 13.72,-19.3 c 4.64,-6.4 9.03,-13 13.9,-19.2 9.56,-12.6 19.13,-25.2 28.69,-37.8 9.95,-12.3 19.91,-24.7 29.87,-37 4.91,-6.2 10.13,-12.2 15.31,-18.2 l 15.55,-18 c 41.81,-47.8 86.24,-93.5 133.04,-136.8 46.84,-43.3 96.39,-83.8 147.79,-122 25.57,-19.3 52.13,-37.3 78.66,-55.3 13.51,-8.7 27.01,-17.4 40.52,-26 6.7,-4.5 13.69,-8.4 20.56,-12.6 l 20.68,-12.3 c 55.28,-32.6 111.9,-62.5 169.82,-90.3 115.89,-55.2 236.69,-100.6 360.14,-137.6 123.57,-36.7 249.86,-64.7 377.44,-85.6 127.64,-20.7 256.59,-34.3 386.06,-42.1 129.48,-7.7 259.47,-9.7 389.59,-7.3 16.26,0.4 32.52,0.8 48.8,1.1 16.26,0.5 32.49,1.2 48.75,1.7 16.26,0.6 32.52,1.2 48.79,1.8 16.27,0.6 32.52,1.6 48.79,2.3 16.27,0.9 32.54,1.7 48.83,2.5 16.28,0.9 32.55,2.1 48.83,3.1 16.29,1.1 32.58,2.2 48.87,3.2 16.28,1.3 32.57,2.6 48.86,3.8 130.33,10.4 260.76,24.5 391.08,42.3 260.63,35.5 520.77,85.8 779.02,149.5 258.27,63.6 514.68,140.5 768.26,229.3 253.61,88.7 504.45,189.2 752.07,299.7 247.62,110.5 492.04,231.1 733.04,360.4 241,129.3 478.54,267.3 712.72,412.7 203.2,126.2 402.44,256.9 597.74,391.5 97.66,67.3 194.36,135.5 290.14,204.6 24,17.2 47.8,34.6 71.7,52 l 35.7,26 35.6,26.2 c 23.7,17.5 47.4,35 70.9,52.6 23.6,17.6 47.2,35.1 70.8,53 47.2,35.5 93.8,71.6 140.2,107.9 46.2,36.4 92.3,73 137.7,110.1 91.2,74 180.8,149.3 269.2,225.5 88.5,76.1 175.7,153.2 261.8,230.8 86.2,77.7 171.4,155.9 255.8,234.5 168.7,157.2 334.3,315.7 498.2,474 163.4,158.5 326,316.2 487.8,473 161.7,156.5 323.1,311.3 485.3,463.3 162.1,152 325.1,301 489.9,445.8 164.8,144.7 331.5,285 500.9,419.5 169.6,134.3 341.9,262.8 517.7,383.5 176,120.4 355.4,233.3 538.8,335.9 91.7,51.3 184.4,100.1 277.9,146.1 l 17.6,8.7 17.6,8.4 c 11.7,5.7 23.5,11.3 35.2,16.9 23.5,11.2 47.2,22 70.7,33 23.7,10.6 47.4,21.3 71.1,31.8 11.9,5.1 23.8,10.3 35.7,15.4 l 17.8,7.7 17.9,7.5 c 95.5,40.1 191.8,77.2 288.8,111.1 12.1,4.3 24.3,8.4 36.5,12.4 12.1,4.1 24.3,8.2 36.4,12.3 24.4,8 48.8,15.7 73.2,23.5 24.5,7.4 48.9,15 73.5,22.2 12.3,3.5 24.5,7 36.8,10.5 l 18.4,5.3 18.5,5.1 c 196.7,53.9 395.8,94 595.3,119.7 199.4,25.5 399.3,36.5 597.4,33.9 198.2,-2.5 394.7,-18.6 587.9,-46.2 -211.4,37.5 -428.1,60.7 -648.1,67.2"
         style="fill:#231f20;fill-opacity:1;fill-rule:nonzero;stroke:none"
         transform="matrix(0.13333333,0,0,-0.13333333,0,2666.6667)" />
      <path
         id="path3"
         d="m 4794.15,5744.5 c -3.62,-9.8 15.04,-16.3 23.86,-8.4 229.41,206 625.65,291.5 625.65,291.5 -137.44,348.8 -81.06,558.3 -81.06,558.3 1894.64,6413.5 3751.23,8367.3 4108.71,8697.9 C 7065.41,13136.6 4794.15,5744.5 4794.15,5744.5"
         style="fill:#231f20;fill-opacity:1;fill-rule:nonzero;stroke:none"
         transform="matrix(0.13333333,0,0,-0.13333333,0,2666.6667)" />
      <path
         id="path4"
         d="M 12618.6,17889.7 C 6891.54,16224.2 5872.8,9713.8 5651.87,8345.3 c 161.17,429.3 343.06,897 540.9,1379.1 504.89,1230.3 1008.57,2301.2 1497.05,3182.8 290.35,524.1 578.55,986.4 856.61,1374 306.59,427.5 608.62,775.1 897.71,1033.1 0,0 87.84,96.6 263.7,153.4 l -208.83,-213.8 c -315.03,-291.4 -1830.38,-1881.7 -3500.19,-6794.2 753.29,678.1 1160.75,941.2 1160.75,941.2 229.3,133.7 439.73,288.6 628.56,449.1 239.71,203.8 352.64,356.8 873.49,658.2 -417.27,-107.2 -1126.64,-176.6 -1126.64,-176.6 492.56,124.6 907.73,370.1 1191.67,576 133.39,200.8 252.77,411.2 357.11,629.8 434.97,911.3 1132.04,1580.1 1253.74,2660 -439.98,-544.4 -1202.26,-637.2 -1202.26,-637.2 472.25,149.7 1333.06,721.8 1333.06,721.8 1305.6,2442.2 2150.3,3607.7 2150.3,3607.7"
         style="fill:#231f20;fill-opacity:1;fill-rule:nonzero;stroke:none"
         transform="matrix(0.13333333,0,0,-0.13333333,0,2666.6667)" />
    </g>
  </g>
</svg>
